# xmcd
#
# Track frame offsets: 
#        150
#        37380
#        71695
#        104259
#        107448
#        128310
#        150506
#        170391
#        188434
#        198409
#        209937
#        223600
#        254144
#        295421
#
# Disc length: 4392 seconds
#
# Revision: 1
# Processed by: cddbd v1.5.1PL2 Copyright (c) Steve Scherf et al.
# Submitted via: ExactAudioCopy v0.95b3
#
DISCID=d511260e
DTITLE=Charlie Parker - Complete Jazz at Massey Hall
DYEAR=1953
DGENRE=Jazz
TTITLE0=Perdido
TTITLE1=Salt Peanuts
TTITLE2=All the Things You Are
TTITLE3=52nd Street Theme
TTITLE4=Drum Conversation
TTITLE5=Cherokee
TTITLE6=Embraceable You
TTITLE7=Hallelujah (Jubilee)
TTITLE8=Sure Thing
TTITLE9=Lullaby of Birdland
TTITLE10=I've Got You Under My Skin
TTITLE11=Wee (Allen'sAlley)
TTITLE12=Hot House
TTITLE13=A Night In Tunisia
EXTD=
EXTT0=
EXTT1=
EXTT2=
EXTT3=
EXTT4=
EXTT5=
EXTT6=
EXTT7=
EXTT8=
EXTT9=
EXTT10=
EXTT11=
EXTT12=
EXTT13=
PLAYORDER=
